# xmcd
#
# Track frame offsets:
#	150
#	17907
#	36145
#	51232
#	72140
#	87957
#	100527
#	113317
#	148240
#	167265
#	185115
#	192777
#	207247
#	221300
#	242635
#	260447
#	275890
#
# Disc length: 3924 seconds
# Revision: 3
# Processed by: cddbd v1.5.2PL0 Copyright (c) Steve Scherf et al.
# Submitted via: dBpowerAMP V12.0
#
DISCID=ee0f5211
DTITLE=Skip Gorman - A Greener Prairie
DYEAR=1994
DGENRE=Country
TTITLE0=Blue Mountain
TTITLE1=Buffalo Hump
TTITLE2=Here's to Texas Rangers
TTITLE3=Orvetta/Old Madera Waltzes
TTITLE4=Where the Old River Flows
TTITLE5=Platte River Pastora/Bonaparte's Retreat
TTITLE6=Yellow Rose of Texas
TTITLE7=Emigrant's Lament for Oregon
TTITLE8=Old Paint's Pony
TTITLE9=Night Herding Song
TTITLE10=Fine Times at Our House
TTITLE11=The Wandering Cowboy
TTITLE12=Rake and Rambling Boy
TTITLE13=The Last Longhorn
TTITLE14=When the Work's All Done This Fall
TTITLE15=Cattle Call
TTITLE16=Dally Welters Waltz/The Clayhole Waltz
EXTD=
EXTT0=
EXTT1=
EXTT2=
EXTT3=
EXTT4=
EXTT5=
EXTT6=
EXTT7=
EXTT8=
EXTT9=
EXTT10=
EXTT11=
EXTT12=
EXTT13=
EXTT14=
EXTT15=
EXTT16=
PLAYORDER=
